<?xml version="1.0" encoding="utf-8"?>
<!-- Generator: Adobe Illustrator 19.0.0, SVG Export Plug-In . SVG Version: 6.00 Build 0)  -->
<svg version="1.1" id="Layer_1" xmlns="http://www.w3.org/2000/svg" xmlns:xlink="http://www.w3.org/1999/xlink" x="0px" y="0px"
	 viewBox="0 0 155 20.3" style="enable-background:new 0 0 155 20.3;" xml:space="preserve">
<style type="text/css">
	.st0{fill:#3372B5;}
	.st1{fill:#6EC6B3;}
</style>
<g id="XMLID_16_">
	<polygon id="XMLID_14_" class="st0" points="9.6,8.5 9.6,8.4 15.2,1 11.4,1 4.7,10 4.5,10.3 4.5,9.9 4.5,1 1.1,1 1.1,18.9 
		4.5,18.9 4.5,15.4 4.5,15.3 4.5,15.3 7.2,11.6 7.4,11.4 7.5,11.6 11.4,18.9 15.2,18.9 9.6,8.6 	"/>
	<path id="XMLID_32_" class="st0" d="M27.3,18.9h3.4V8.1c0-1-0.2-1.9-0.6-2.8c-0.4-0.9-0.9-1.6-1.5-2.3c-0.6-0.6-1.4-1.2-2.3-1.5
		C25.5,1.2,24.5,1,23.6,1c-1,0-1.9,0.2-2.8,0.6c-0.9,0.4-1.6,0.9-2.3,1.5c-0.6,0.6-1.2,1.4-1.5,2.3c-0.4,0.9-0.6,1.8-0.6,2.8v10.8
		h3.4v-3.5v-0.1h0.1h7.3h0.1v0.1V18.9z M27.2,11.9h-7.3h-0.1v-0.1V8.1c0-0.5,0.1-1,0.3-1.5c0.2-0.5,0.5-0.9,0.8-1.2
		c0.3-0.3,0.7-0.6,1.2-0.8c0.5-0.2,0.9-0.3,1.5-0.3c0.5,0,1,0.1,1.5,0.3c0.5,0.2,0.9,0.5,1.2,0.8c0.3,0.3,0.6,0.7,0.8,1.2
		c0.2,0.5,0.3,0.9,0.3,1.5v3.6v0.1H27.2z"/>
	<path id="XMLID_11_" class="st0" d="M50.8,15.9c0.3-0.6,0.4-1.3,0.4-2.1V1h-3.4v12.8c0,0.3-0.1,0.5-0.2,0.8
		c-0.1,0.2-0.2,0.4-0.4,0.6c-0.2,0.2-0.4,0.3-0.6,0.4c-0.2,0.1-0.5,0.1-0.8,0.1c-0.3,0-0.5-0.1-0.8-0.1c-0.2-0.1-0.4-0.2-0.6-0.4
		c-0.2-0.2-0.3-0.4-0.4-0.6c-0.1-0.2-0.1-0.5-0.1-0.8V1h-3.4v12.8c0,0.3-0.1,0.5-0.1,0.8c-0.1,0.2-0.2,0.4-0.4,0.6
		c-0.2,0.2-0.4,0.3-0.6,0.4c-0.2,0.1-0.5,0.1-0.8,0.1c-0.3,0-0.5-0.1-0.8-0.1c-0.2-0.1-0.4-0.2-0.6-0.4c-0.2-0.2-0.3-0.4-0.4-0.6
		c-0.1-0.2-0.1-0.5-0.1-0.8V1h-3.4v12.8c0,0.7,0.1,1.4,0.4,2.1c0.3,0.6,0.7,1.2,1.1,1.7c0.5,0.5,1,0.9,1.7,1.1
		c0.6,0.3,1.3,0.4,2.1,0.4c0.7,0,1.3-0.1,1.9-0.3c0.6-0.2,1.2-0.6,1.6-1l0.1-0.1l0.1,0.1c0.5,0.4,1,0.8,1.6,1
		c0.6,0.2,1.2,0.3,1.9,0.3c0.7,0,1.4-0.1,2.1-0.4c0.6-0.3,1.2-0.7,1.7-1.1C50.1,17.1,50.5,16.5,50.8,15.9z"/>
	<path id="XMLID_28_" class="st0" d="M64.7,18.9h3.4V8.1c0-1-0.2-1.9-0.6-2.8c-0.4-0.9-0.9-1.6-1.5-2.3c-0.6-0.6-1.4-1.2-2.3-1.5
		C62.9,1.2,61.9,1,61,1c-1,0-1.9,0.2-2.8,0.6c-0.9,0.4-1.6,0.9-2.3,1.5c-0.6,0.6-1.2,1.4-1.5,2.3c-0.4,0.9-0.6,1.8-0.6,2.8v10.8h3.4
		v-3.5v-0.1h0.1h7.3h0.1v0.1V18.9z M64.6,11.9h-7.3h-0.1v-0.1V8.1c0-0.5,0.1-1,0.3-1.5c0.2-0.5,0.5-0.9,0.8-1.2
		c0.3-0.3,0.7-0.6,1.2-0.8C60,4.5,60.5,4.4,61,4.4c0.5,0,1,0.1,1.5,0.3c0.5,0.2,0.9,0.5,1.2,0.8c0.3,0.3,0.6,0.7,0.8,1.2
		c0.2,0.5,0.3,0.9,0.3,1.5v3.6v0.1H64.6z"/>
	<polygon id="XMLID_8_" class="st0" points="81.4,18.9 85.1,18.9 85.1,1 81.7,1 81.7,12.8 81.7,13.3 81.5,12.9 74.5,1 70.9,1 
		70.9,18.9 74.2,18.9 74.2,7.1 74.2,6.6 74.5,7 	"/>
	<path id="XMLID_24_" class="st1" d="M99.8,16.3c0.5-0.5,1-1.2,1.4-1.8c0.4-0.7,0.7-1.4,0.9-2.1c0.2-0.8,0.3-1.6,0.3-2.4
		c0-0.8-0.1-1.6-0.3-2.4c-0.2-0.8-0.5-1.5-0.9-2.1c-0.4-0.7-0.9-1.3-1.4-1.8c-0.5-0.5-1.1-1-1.8-1.4c-0.7-0.4-1.4-0.7-2.1-0.9
		C95.1,1.1,94.3,1,93.4,1h-5.3v17.9h5.3c0.8,0,1.6-0.1,2.4-0.3c0.8-0.2,1.5-0.5,2.1-0.9C98.6,17.3,99.2,16.8,99.8,16.3z M95.6,15.1
		c-0.7,0.3-1.4,0.4-2.2,0.4h-1.8h-0.1v-0.1V4.5V4.4h0.1h1.8c0.8,0,1.5,0.1,2.2,0.4c0.7,0.3,1.3,0.7,1.8,1.2c0.5,0.5,0.9,1.1,1.2,1.8
		C98.9,8.4,99,9.2,99,9.9c0,0.8-0.1,1.5-0.4,2.2c-0.3,0.7-0.7,1.3-1.2,1.8C96.9,14.4,96.3,14.8,95.6,15.1z"/>
	<path id="XMLID_21_" class="st1" d="M115.1,18.9h3.4V8.1c0-1-0.2-1.9-0.6-2.8c-0.4-0.9-0.9-1.6-1.5-2.3c-0.6-0.6-1.4-1.2-2.3-1.5
		c-0.9-0.4-1.8-0.6-2.8-0.6c-1,0-1.9,0.2-2.8,0.6c-0.9,0.4-1.6,0.9-2.3,1.5c-0.6,0.6-1.2,1.4-1.5,2.3c-0.4,0.9-0.6,1.8-0.6,2.8v10.8
		h3.4v-3.5v-0.1h0.1h7.3h0.1v0.1V18.9z M114.9,11.9h-7.3h-0.1v-0.1V8.1c0-0.5,0.1-1,0.3-1.5c0.2-0.5,0.5-0.9,0.8-1.2
		c0.3-0.3,0.7-0.6,1.2-0.8c0.5-0.2,0.9-0.3,1.5-0.3c0.5,0,1,0.1,1.5,0.3c0.5,0.2,0.9,0.5,1.2,0.8c0.3,0.3,0.6,0.7,0.8,1.2
		c0.2,0.5,0.3,0.9,0.3,1.5v3.6v0.1H114.9z"/>
	<polygon id="XMLID_3_" class="st1" points="131.8,18.9 135.5,18.9 135.5,1 132.1,1 132.1,12.8 132.1,13.3 131.9,12.9 124.9,1 
		121.2,1 121.2,18.9 124.6,18.9 124.6,7.1 124.6,6.6 124.8,7 	"/>
	<path id="XMLID_17_" class="st1" d="M149.1,18.9h3.4V8.1c0-1-0.2-1.9-0.6-2.8c-0.4-0.9-0.9-1.6-1.5-2.3c-0.6-0.6-1.4-1.2-2.3-1.5
		c-0.9-0.4-1.8-0.6-2.8-0.6c-1,0-1.9,0.2-2.8,0.6c-0.9,0.4-1.6,0.9-2.3,1.5c-0.6,0.6-1.2,1.4-1.5,2.3c-0.4,0.9-0.6,1.8-0.6,2.8v10.8
		h3.4v-3.5v-0.1h0.1h7.3h0.1v0.1V18.9z M149,11.9h-7.3h-0.1v-0.1V8.1c0-0.5,0.1-1,0.3-1.5c0.2-0.5,0.5-0.9,0.8-1.2
		c0.3-0.3,0.7-0.6,1.2-0.8c0.5-0.2,0.9-0.3,1.5-0.3c0.5,0,1,0.1,1.5,0.3c0.5,0.2,0.9,0.5,1.2,0.8c0.3,0.3,0.6,0.7,0.8,1.2
		c0.2,0.5,0.3,0.9,0.3,1.5v3.6v0.1H149z"/>
</g>
</svg>
